<?xml version="1.0" encoding="UTF-8" standalone="no"?>
<svg width="234px" height="45px" viewBox="0 0 234 45" version="1.1" xmlns="http://www.w3.org/2000/svg" xmlns:xlink="http://www.w3.org/1999/xlink">
    <!-- Generator: Sketch 3.6.1 (26313) - http://www.bohemiancoding.com/sketch -->
    <title>Fill 15</title>
    <desc>Created with Sketch.</desc>
    <defs></defs>
    <g id="Page-1" stroke="none" stroke-width="1" fill="none" fill-rule="evenodd">
        <g id="LifeLines-1140px-16032401" transform="translate(-60.000000, -289.000000)" fill="#00ACC8">
            <g id="Group-17" transform="translate(60.000000, 289.000000)">
                <path d="M205.2691,27.2681 C205.1821,27.3441 205.0921,27.4221 205.0001,27.5011 C205.1741,26.3601 205.4921,25.2651 205.9331,24.2351 C209.8271,21.3291 214.1401,19.8691 218.4501,19.8611 C222.9361,19.8691 227.4281,21.4471 231.4451,24.5951 C231.8231,24.8911 232.1911,25.2421 232.6321,25.6141 C232.9641,25.8941 233.3171,26.1911 233.6961,26.5021 C233.4511,25.2781 233.0611,24.1071 232.5481,23.0061 C232.5451,23.0041 232.5431,23.0021 232.5401,23.0001 C231.8851,21.6011 231.0261,20.3171 230.0041,19.1821 L230.0191,19.1951 L229.7221,18.8631 C226.8891,15.8801 222.8881,14.0181 218.4501,14.0181 C214.0121,14.0181 210.0111,15.8801 207.1781,18.8631 C210.7661,16.8741 214.6101,15.8371 218.4501,15.8261 C218.4501,15.8261 218.7401,15.8311 218.8801,15.8341 C222.6241,15.9621 226.1221,17.7671 228.5221,20.4091 C225.3301,18.7671 221.9171,17.9151 218.4501,17.9041 C213.4761,17.9201 208.6101,19.6861 204.3531,23.0011 C203.8391,24.1021 203.4491,25.2761 203.2041,26.4991 C203.2111,26.4941 203.2171,26.4901 203.2241,26.4841 C203.2181,26.4891 203.2121,26.4951 203.2061,26.5001 C203.0291,27.3801 202.9311,28.2881 202.9101,29.2141 L202.9101,29.2141 L202.9101,29.2151 C202.9071,29.3361 202.9011,29.4511 202.9011,29.5731 C202.9011,30.2451 202.9481,30.9031 203.0311,31.5521 C204.5301,30.4761 205.6641,29.4881 206.5461,28.7211 L206.7831,28.4891 C210.3891,25.3671 214.4221,23.8011 218.4501,23.7921 C222.4781,23.8011 226.5111,25.3671 230.1181,28.4891 L230.3541,28.7211 C230.8351,29.1391 231.3941,29.6241 232.0431,30.1511 C232.0081,30.9641 231.9011,31.7581 231.7291,32.5281 C230.7931,31.8161 230.1801,31.2611 229.8671,30.9501 C226.4421,27.5511 222.4981,25.8301 218.4581,25.8301 L218.4421,25.8301 C214.4031,25.8301 210.4591,27.5511 207.0331,30.9501 C206.5591,31.4211 205.4021,32.4511 203.4661,33.7461 C203.6441,34.3891 203.8591,35.0051 204.1141,35.6121 C204.1191,35.6091 204.1371,35.6641 204.1421,35.6611 C204.1401,35.6631 204.1771,35.7331 204.1751,35.7341 C204.4651,36.4201 204.6521,36.8161 205.0331,37.4481 C205.0291,37.4511 205.1231,37.5901 205.1181,37.5931 C205.4521,38.1481 205.8221,38.6681 206.2201,39.1741 C207.9911,38.0261 209.2791,36.9971 210.0351,36.1521 C212.7611,33.1051 215.5841,31.5971 218.4501,31.5831 C221.3161,31.5971 224.1401,33.1051 226.8651,36.1521 C227.3681,36.7141 228.1081,37.3581 229.0681,38.0641 L229.0671,38.0641 C228.6771,38.5511 228.2541,39.0101 227.8011,39.4391 C227.5601,39.2191 227.3581,39.0131 227.1981,38.8211 C224.2371,35.2771 221.3681,33.6401 218.4501,33.6281 C215.5321,33.6401 212.6631,35.2771 209.7031,38.8211 C209.2711,39.3381 208.5391,39.9571 207.5431,40.6681 C208.0101,41.1281 208.5071,41.5481 209.0291,41.9461 C209.1521,42.0451 210.0321,42.6761 210.6941,43.0671 C211.2721,43.4001 211.8711,43.6871 212.4921,43.9451 C212.5661,43.8591 212.6371,43.7691 212.7041,43.6851 C215.0591,40.7141 216.8121,39.3841 218.4101,39.3801 C218.4231,39.3801 218.4371,39.3811 218.4501,39.3811 C218.4641,39.3811 218.4771,39.3791 218.4911,39.3791 C219.8261,39.3831 221.2721,40.3191 223.0871,42.3601 C222.4611,42.5881 221.8151,42.7701 221.1511,42.9041 C220.1691,41.9171 219.3681,41.4421 218.4501,41.4381 C217.1141,41.4441 216.0231,42.4481 214.2631,44.5841 C214.9581,44.7781 215.6731,44.9041 216.4041,45.0001 C217.3221,43.9221 218.0181,43.2291 218.4501,43.2071 C218.8831,43.2291 219.5781,43.9221 220.4961,45.0001 C221.2271,44.9041 221.9421,44.7781 222.6381,44.5841 C222.6541,44.5791 222.6811,44.5701 222.6901,44.5671 C223.3031,44.3971 223.8051,44.1971 224.3851,43.9561 C224.3961,43.9511 224.4011,43.9481 224.4091,43.9451 C225.0301,43.6861 225.6291,43.3971 226.2061,43.0641 C226.0081,42.8651 225.8381,42.7041 225.6971,42.5261 C222.9001,38.9991 220.7551,37.5451 218.4761,37.5451 L218.4611,37.5451 L218.4501,37.5451 L218.4391,37.5451 L218.4241,37.5451 C216.3691,37.5451 214.4221,38.7291 212.0071,41.5491 C211.5181,41.2851 211.0481,40.9891 210.5971,40.6691 C210.8361,40.4471 211.0421,40.2351 211.2121,40.0321 C213.7771,36.9601 216.1451,35.5021 218.4501,35.4881 C220.7551,35.5021 223.1231,36.9601 225.6891,40.0321 C226.1561,40.5911 226.8941,41.2201 227.8711,41.9461 C228.3941,41.5481 228.8901,41.1281 229.3581,40.6681 C229.4881,40.5471 230.1311,39.8671 230.5431,39.3441 C230.5471,39.3461 230.6771,39.1721 230.6801,39.1741 C231.0791,38.6681 231.4491,38.1481 231.7821,37.5931 C230.0151,36.4561 228.8781,35.5081 228.3261,34.8911 C225.2131,31.4121 221.8951,29.7351 218.4501,29.7231 C215.0061,29.7351 211.6871,31.4121 208.5751,34.8911 C208.2151,35.2931 207.6051,35.8361 206.7361,36.4801 C206.3581,35.8411 206.0321,35.1691 205.7601,34.4701 C207.1031,33.4781 207.9731,32.6751 208.4091,32.2421 C211.5131,29.1631 214.9831,27.6171 218.4501,27.6051 C221.9171,27.6171 225.3881,29.1631 228.4911,32.2421 C229.0861,32.8321 230.4801,34.1051 232.7861,35.6111 C233.0421,35.0031 233.2561,34.3861 233.4341,33.7421 C233.4321,33.7411 233.4301,33.7401 233.4271,33.7381 C233.6221,33.0421 233.7671,32.3381 233.8631,31.5951 L233.8641,31.5951 L233.8701,31.5531 C233.9521,30.9031 234.0001,30.2451 234.0001,29.5721 C234.0001,29.4511 233.9931,29.3341 233.9911,29.2131 C233.0371,28.4771 232.2661,27.8161 231.6311,27.2651 L231.3751,27.0561 C227.4831,23.6861 223.0181,21.9251 218.4511,21.9251 L218.4491,21.9251 C213.8821,21.9251 209.4181,23.6861 205.5251,27.0561 L205.2691,27.2681 Z M181.9471,23.0411 C181.9471,21.1831 183.8711,20.2551 185.8611,20.2551 C188.5811,20.2551 189.9741,21.5151 190.5051,23.1741 L198.3331,23.1741 C197.3381,17.6011 193.2251,14.0181 185.7281,14.0181 C179.0941,14.0181 173.9191,17.8661 173.9191,23.6381 C173.9191,28.6131 177.1041,30.9351 181.6151,31.9971 L187.5861,33.3241 C189.6421,33.8551 190.5711,34.5181 190.5711,35.8451 C190.5711,37.7691 188.9131,38.7641 186.3921,38.7641 C183.9371,38.7641 182.0791,37.6361 181.4161,35.5131 L173.2561,35.5131 C174.1181,41.5501 179.2271,45.0001 186.4581,45.0001 C193.3581,45.0001 198.5991,41.4181 198.5991,35.3811 C198.5991,30.8691 195.8791,28.0171 190.7041,26.7561 L184.6001,25.3631 C182.7431,24.8981 181.9471,24.2351 181.9471,23.0411 L181.9471,23.0411 Z M149.6601,31.2671 L169.4301,31.2671 L169.4301,28.7461 C169.4301,20.0561 164.6531,14.0181 155.9621,14.0181 C147.6701,14.0181 141.6991,20.5861 141.6991,29.5421 C141.6991,38.6971 147.4711,45.0001 156.0951,45.0001 C163.1791,45.0001 167.7221,41.3171 169.0511,35.5131 L161.2961,35.5131 C160.4241,37.4441 158.5411,38.3661 156.0951,38.3661 C152.4461,38.3661 149.9251,35.7121 149.6601,31.2671 L149.6601,31.2671 Z M149.8591,26.2921 C150.5891,22.6431 152.8441,20.7191 156.0291,20.7191 C159.4121,20.7191 161.2701,23.1741 161.3361,26.2921 L149.8591,26.2921 Z M129.0171,44.3371 L137.2441,44.3371 L137.2441,24.9651 C137.2441,18.3971 133.4621,14.0181 126.7621,14.0181 C123.3121,14.0181 120.3931,15.5441 118.8011,17.4021 L118.8011,14.6821 L110.5741,14.6821 L110.5741,44.3371 L118.8011,44.3371 L118.8011,25.5621 C119.4641,22.9751 121.6531,21.4491 124.1741,21.4491 C127.4251,21.4491 129.0171,23.5721 129.0171,26.6901 L129.0171,44.3371 Z M104.5361,5.9251 C104.5361,3.2051 102.2801,1.2141 99.6931,1.2141 C97.0391,1.2141 94.7841,3.2051 94.7841,5.9251 C94.7841,8.7111 97.0391,10.6351 99.6931,10.6351 C102.2801,10.6351 104.5361,8.7111 104.5361,5.9251 L104.5361,5.9251 Z M80.5191,44.3371 L88.7451,44.3371 L88.7451,1.2151 L80.5191,1.2151 L80.5191,44.3371 Z M55.6471,31.2671 L75.4171,31.2671 L75.4171,28.7461 C75.4171,20.0561 70.6411,14.0181 61.9501,14.0181 C53.6571,14.0181 47.6861,20.5861 47.6861,29.5421 C47.6861,38.6971 53.4581,45.0001 62.0821,45.0001 C69.1661,45.0001 73.7091,41.3171 75.0381,35.5131 L67.2831,35.5131 C66.4111,37.4441 64.5291,38.3661 62.0821,38.3661 C58.4341,38.3661 55.9131,35.7121 55.6471,31.2671 L55.6471,31.2671 Z M55.8461,26.2921 C56.5761,22.6431 58.8321,20.7191 62.0161,20.7191 C65.4001,20.7191 67.2571,23.1741 67.3241,26.2921 L55.8461,26.2921 Z M44.9331,7.5831 C45.8671,7.5831 46.8541,7.7721 47.6861,8.2881 L47.6861,1.3521 C46.5221,0.8671 45.1141,0.6171 43.2741,0.6171 C36.9721,0.6171 32.7921,4.4651 32.7921,11.1661 L32.7921,14.6821 L27.9491,14.6821 L27.9491,21.3161 L32.7921,21.3161 L32.7921,44.3371 L40.8861,44.3371 L40.8861,21.3161 L46.9241,21.3161 L46.9241,14.6821 L40.8861,14.6821 L40.8861,11.6961 C40.8861,8.9761 42.4121,7.5831 44.9331,7.5831 L44.9331,7.5831 Z M24.0171,5.9251 C24.0171,3.2051 21.7611,1.2141 19.1741,1.2141 C16.5201,1.2141 14.2641,3.2051 14.2641,5.9251 C14.2641,8.7111 16.5201,10.6351 19.1741,10.6351 C21.7611,10.6351 24.0171,8.7111 24.0171,5.9251 L24.0171,5.9251 Z M0.0001,44.3371 L8.2261,44.3371 L8.2261,1.2151 L0.0001,1.2151 L0.0001,44.3371 Z M15.0281,44.3371 L23.2541,44.3371 L23.2541,14.6821 L15.0281,14.6821 L15.0281,44.3371 Z M95.5471,44.3371 L103.7731,44.3371 L103.7731,14.6821 L95.5471,14.6821 L95.5471,44.3371 Z" id="Fill-15"></path>
            </g>
        </g>
    </g>
</svg>